<?xml version="1.0" encoding="UTF-8"?>
<svg width="33px" height="24px" viewBox="0 0 33 24" version="1.1" xmlns="http://www.w3.org/2000/svg" xmlns:xlink="http://www.w3.org/1999/xlink">
    <!-- Generator: Sketch 42 (36781) - http://www.bohemiancoding.com/sketch -->
    <title>Shape</title>
    <desc>Created with Sketch.</desc>
    <defs>
        <path d="M22.9757066,2.26779702 C22.1300716,2.65263273 21.2227174,2.91362391 20.2693742,3.03014264 C21.2428024,2.43147076 21.9879373,1.48189317 22.3410955,0.353874578 C21.4279974,0.908283224 20.4201056,1.31085508 19.3461773,1.52908673 C18.4862012,0.586873496 17.262968,0 15.9061978,0 C13.3032562,0 11.1927539,2.16754926 11.1927539,4.83938329 C11.1927539,5.21831981 11.2343881,5.58842681 11.3148032,5.94233995 C7.39818962,5.74030216 3.92521067,3.81311617 1.60079368,0.884686444 C1.1944759,1.59837335 0.963329404,2.42996704 0.963329404,3.31766092 C0.963329404,4.99715784 1.79604996,6.47905101 3.05949064,7.34603987 C2.28706264,7.31951277 1.56058613,7.10128112 0.924585992,6.73853847 L0.924585992,6.79899558 C0.924585992,9.14348213 2.54981955,11.1001641 4.7048092,11.5454955 C4.3099793,11.6546113 3.89363779,11.7150684 3.46291767,11.7150684 C3.15856415,11.7150684 2.86423435,11.6841073 2.5756485,11.6251153 C3.17575841,13.549371 4.9158707,14.9486754 6.97756831,14.9870395 C5.36524922,16.284631 3.33227129,17.0558062 1.12415961,17.0558062 C0.74370832,17.0558062 0.368963421,17.0322094 0,16.9894498 C2.08609996,18.3651961 4.56271249,19.1673323 7.22452002,19.1673323 C15.894785,19.1673323 20.6340954,11.7917579 20.6340954,5.39529566 L20.6182901,4.76863151 C21.5443027,4.09030122 22.3454129,3.23804107 22.9757066,2.26779702 Z" id="path-1"></path>
        <mask id="mask-2" maskContentUnits="userSpaceOnUse" maskUnits="objectBoundingBox" x="-1.5" y="-1.5" width="25.9757066" height="22.1673323">
            <rect x="-1.5" y="-1.5" width="25.9757066" height="22.1673323" fill="white"></rect>
            <use xlink:href="#path-1" fill="black"></use>
        </mask>
    </defs>
    <g id="blog" stroke="none" stroke-width="1" fill="none" fill-rule="evenodd">
        <g id="Blog-post" transform="translate(-112.000000, -452.000000)" stroke="#7B7B7B" stroke-width="3" fill-rule="nonzero">
            <g id="share-icons" transform="translate(118.000000, 381.000000)">
                <g id="tweet" transform="translate(0.000000, 74.000000)">
                    <use id="Shape" mask="url(#mask-2)" xlink:href="#path-1"></use>
                </g>
            </g>
        </g>
    </g>
</svg>