<?xml version="1.0" encoding="UTF-8"?>
<svg width="60px" height="60px" viewBox="0 0 60 60" version="1.1" xmlns="http://www.w3.org/2000/svg" xmlns:xlink="http://www.w3.org/1999/xlink">
    <!-- Generator: Sketch 42 (36781) - http://www.bohemiancoding.com/sketch -->
    <title>Shape</title>
    <desc>Created with Sketch.</desc>
    <defs></defs>
    <g id="Symbols" stroke="none" stroke-width="1" fill="none" fill-rule="evenodd">
        <g id="social-footer" transform="translate(-48.000000, -68.000000)" fill-rule="nonzero" fill="#D8D8D8">
            <g id="Group-3">
                <g id="Group-7" transform="translate(48.000000, 68.000000)">
                    <g id="github">
                        <path d="M30,0 C13.4324454,0 0,13.4324454 0,30 C0,46.5694082 13.4324454,60 30,60 C46.5675546,60 60,46.5694082 60,30 C59.999794,13.4324454 46.5673486,0 30,0 Z M38.4035425,52.8542496 C38.2309488,50.506728 38.0379651,47.5985857 38.0266374,46.4211177 C37.9516683,45.5173692 37.8540437,43.2186599 35.6717012,41.7505836 C44.3359879,41.0249897 48.4590828,36.2362351 48.7554579,29.9081422 C49.0030207,26.3044762 47.5703694,23.1355897 45.0261568,20.5781958 C45.1554991,17.8426473 44.9435672,14.6006453 44.7674722,13.1758204 C42.8137443,12.6133461 38.2575175,15.0189482 36.9842785,16.0483317 C34.2991899,15.0057669 27.7274475,14.6401895 23.7336949,16.0483317 C20.9023754,14.0571193 17.6793217,12.8271317 15.9224907,13.1702595 C14.300563,16.7646574 15.3431278,20.1621585 15.6598929,20.567074 C13.5710559,22.4759028 10.6573527,24.825278 11.4486475,29.7470822 C12.7179734,36.9638885 17.7954826,40.8565152 25.9704105,41.80887 C24.226761,42.1651792 23.9322395,43.4664287 23.7860085,44.0307566 C18.2959632,46.2956886 16.726761,42.6320884 16.0328848,41.677674 C13.7286146,38.8257586 11.6603735,39.6526843 11.5328848,39.6975834 C11.4091034,39.7424825 11.315392,39.9224907 11.3285734,40.0087876 C11.4447343,40.6237814 12.6992311,41.2482493 12.7610188,41.2987093 C14.461623,42.5661815 15.0916518,44.8556227 15.4796787,45.5081011 C17.9190581,49.5187423 23.5891116,47.8556227 23.6434848,47.8894 C23.6471921,48.2399423 23.6041466,51.191336 23.5703694,53.4881917 C13.2318413,50.6642867 5.62494851,41.2330084 5.62494851,30 C5.62494851,16.5374846 16.5374846,5.62515447 29.999794,5.62515447 C43.4621035,5.62515447 54.3748455,16.5374846 54.3748455,30 C54.3748455,40.5055609 47.7186599,49.4285322 38.4035425,52.8542496 Z" id="Shape"></path>
                    </g>
                </g>
            </g>
        </g>
    </g>
</svg>