<?xml version="1.0" encoding="UTF-8"?>
<svg width="37px" height="32px" viewBox="0 0 37 32" version="1.1" xmlns="http://www.w3.org/2000/svg" xmlns:xlink="http://www.w3.org/1999/xlink">
    <!-- Generator: Sketch 42 (36781) - http://www.bohemiancoding.com/sketch -->
    <title>Shape</title>
    <desc>Created with Sketch.</desc>
    <defs></defs>
    <g id="Symbols" stroke="none" stroke-width="1" fill="none" fill-rule="evenodd">
        <g id="social-footer" transform="translate(-726.000000, -79.000000)" fill-rule="nonzero" fill="#D8D8D8">
            <g id="Group-3">
                <g id="Group-7" transform="translate(50.000000, 69.000000)">
                    <g id="Group-6" transform="translate(672.000000, 3.000000)">
                        <path d="M40.4115396,11.0367294 C39.5894575,11.4012673 38.7360726,11.6888562 37.8604058,11.8970605 C38.8252901,10.9801679 39.5507575,9.83333038 39.9600394,8.553253 L39.9600394,8.553253 C40.0768612,8.18781301 39.6799379,7.871808 39.3499504,8.0674731 L39.3499504,8.0674731 C38.131757,8.79005378 36.8195649,9.33212461 35.4497287,9.67880096 C35.3702539,9.69891775 35.2882531,9.70911146 35.2059818,9.70911146 C34.9564614,9.70911146 34.7138872,9.61646597 34.5230934,9.44831486 C33.0656635,8.16381719 31.1911936,7.45639176 29.2450971,7.45639176 C28.4029884,7.45639176 27.5527608,7.58764705 26.7179591,7.84654925 C24.1314631,8.6487852 22.1357512,10.7823377 21.5096048,13.4146603 C21.2746984,14.4020069 21.2111005,15.3902555 21.3204348,16.3518922 C21.332974,16.4623992 21.2807425,16.5395286 21.2485376,16.5757027 C21.191976,16.6391202 21.1117795,16.6754748 21.0285158,16.6754748 C21.0192242,16.6754748 21.009662,16.6750238 21.0001899,16.6741217 C15.338441,16.1481082 10.2329259,13.4204338 6.62408196,8.99365735 L6.62408196,8.99365735 C6.44005392,8.76786217 6.08715309,8.79555658 5.94047192,9.04715178 L5.94047192,9.04715178 C5.23376817,10.2595718 4.8602995,11.6462772 4.8602995,13.0573392 C4.8602995,15.2198491 5.7291103,17.2577792 7.23823043,18.7434448 C6.60360433,18.5929748 5.98936564,18.3559936 5.41878851,18.0390865 L5.41878851,18.0390865 C5.14274646,17.8857298 4.80310647,18.0828383 4.79922745,18.3985726 L4.79922745,18.3985726 C4.75971555,21.6111248 6.64059035,24.4696937 9.45820396,25.7568977 C9.40146198,25.7582508 9.34472,25.7588823 9.28788781,25.7588823 C8.84125898,25.7588823 8.38903714,25.715762 7.94394187,25.6306941 L7.94394187,25.6306941 C7.63307882,25.5713361 7.37192139,25.866232 7.4684459,26.167623 L7.4684459,26.167623 C8.38299308,29.0228541 10.8413912,31.1274493 13.7833139,31.6052907 C11.3416948,33.244313 8.49837144,34.1088839 5.53903821,34.1088839 L4.61646235,34.1083426 C4.3322112,34.1083426 4.09180202,34.2936336 4.01936353,34.568954 C3.94800756,34.8401247 4.07944328,35.1261801 4.32183707,35.267178 C7.65653338,37.2078619 11.4602306,38.2335476 15.323376,38.2335476 C18.7048912,38.2335476 21.8680084,37.5624767 24.7249535,36.2390986 C27.3440153,35.0258667 29.6584385,33.2915829 31.6039036,31.0844192 C33.4162189,29.0283569 34.8334152,26.6548462 35.8159806,24.0299208 C36.7526292,21.527771 37.2477007,18.8579211 37.2477007,16.3089523 L37.2477007,16.1875299 C37.2476105,15.7782479 37.432721,15.3931422 37.7556722,15.1309924 C38.9811726,14.1359781 40.0483549,12.9646937 40.9274496,11.6497052 L40.9274496,11.6497052 C41.1595594,11.3024876 40.793488,10.8673154 40.4115396,11.0367294 L40.4115396,11.0367294 Z" id="Shape"></path>
                    </g>
                </g>
            </g>
        </g>
    </g>
</svg>