<?xml version="1.0" encoding="UTF-8"?>
<svg width="15px" height="25px" viewBox="0 0 15 25" version="1.1" xmlns="http://www.w3.org/2000/svg" xmlns:xlink="http://www.w3.org/1999/xlink">
    <!-- Generator: Sketch 42 (36781) - http://www.bohemiancoding.com/sketch -->
    <title>Shape</title>
    <desc>Created with Sketch.</desc>
    <defs>
        <path d="M10.5857723,0.83855759 L7.94737247,0.834209871 C4.98322077,0.834209871 3.06765572,2.85263842 3.06765572,5.9766919 L3.06765572,8.34772046 L0.414862707,8.34772046 C0.185629895,8.34772046 0,8.53858532 0,8.77401431 L0,12.2093645 C0,12.4447935 0.185841559,12.6354409 0.414862707,12.6354409 L3.06765572,12.6354409 L3.06765572,21.3039231 C3.06765572,21.5393521 3.25328561,21.7299995 3.48251842,21.7299995 L6.94365872,21.7299995 C7.17289153,21.7299995 7.35852143,21.5391347 7.35852143,21.3039231 L7.35852143,12.6354409 L10.4602552,12.6354409 C10.689488,12.6354409 10.8751179,12.4447935 10.8751179,12.2093645 L10.8763878,8.77401431 C10.8763878,8.66097361 10.8325733,8.55271541 10.7548923,8.47271738 C10.6772114,8.39271935 10.5713791,8.34772046 10.4613135,8.34772046 L7.35852143,8.34772046 L7.35852143,6.33776997 C7.35852143,5.37170681 7.58267429,4.8812841 8.80800092,4.8812841 L10.585349,4.88063194 C10.8143701,4.88063194 11,4.68976708 11,4.45455548 L11,1.26463405 C11,1.02963984 10.8145818,0.838992362 10.5857723,0.83855759 Z" id="path-1"></path>
        <mask id="mask-2" maskContentUnits="userSpaceOnUse" maskUnits="objectBoundingBox" x="-1.5" y="-1.5" width="14" height="23.8957897">
            <rect x="-1.5" y="-0.665790129" width="14" height="23.8957897" fill="white"></rect>
            <use xlink:href="#path-1" fill="black"></use>
        </mask>
    </defs>
    <g id="blog" stroke="none" stroke-width="1" fill="none" fill-rule="evenodd">
        <g id="Blog-post" transform="translate(-178.000000, -452.000000)" stroke="#7B7B7B" stroke-width="3" fill-rule="nonzero">
            <g id="share-icons" transform="translate(118.000000, 381.000000)">
                <g id="share-fb" transform="translate(62.000000, 72.000000)">
                    <use id="Shape" mask="url(#mask-2)" xlink:href="#path-1"></use>
                </g>
            </g>
        </g>
    </g>
</svg>