<?xml version="1.0" encoding="UTF-8"?>
<svg width="43px" height="43px" viewBox="0 0 43 43" version="1.1" xmlns="http://www.w3.org/2000/svg" xmlns:xlink="http://www.w3.org/1999/xlink">
    <!-- Generator: Sketch 42 (36781) - http://www.bohemiancoding.com/sketch -->
    <title>Shape</title>
    <desc>Created with Sketch.</desc>
    <defs></defs>
    <g id="Symbols" stroke="none" stroke-width="1" fill="none" fill-rule="evenodd">
        <g id="social-footer" transform="translate(-408.000000, -74.000000)" fill-rule="nonzero" fill="#D9D9D9">
            <g id="Group-3">
                <g id="Group-7" transform="translate(48.000000, 68.000000)">
                    <g id="slack" transform="translate(358.000000, 4.000000)">
                        <path d="M44.6172802,24.5952303 C43.780385,22.7216649 41.5815103,21.8807202 39.7079449,22.7176154 L37.9194188,23.519415 L33.3353928,13.2728479 L35.1239188,12.473748 C36.9974843,11.6341531 37.8370791,9.43662822 36.9988341,7.56441263 C36.1619389,5.68949738 33.964414,4.84855267 32.0894988,5.68814755 L30.3023225,6.48859733 L29.5018727,4.69872143 C28.6636277,2.82515601 26.4661028,1.98691096 24.5925374,2.82515601 C22.718972,3.66205122 21.8807269,5.85822625 22.7176222,7.73449134 L23.5180719,9.5230174 L13.2715049,14.1056936 L12.4724049,12.3171676 C11.6341599,10.4409025 9.436635,9.6053571 7.56306958,10.4409025 C5.68950415,11.2791475 4.85125911,13.4766724 5.68815432,15.3502378 L6.48725427,17.1374141 L4.70007803,17.9392137 C2.82651261,18.7774587 1.98691773,20.9722839 2.82516278,22.8471992 C3.662058,24.7207646 5.86093269,25.5603595 7.73449811,24.7234642 L9.52302418,23.9216646 L14.1043506,34.1695816 L12.3158245,34.9686815 C10.4422591,35.8069265 9.60401404,38.0058012 10.4409093,39.8780168 C11.2791543,41.7529321 13.4766792,42.592527 15.3502446,41.7556317 L17.1374208,40.955182 L17.9378706,42.743708 C18.7761157,44.6186233 20.9736405,45.4568683 22.8472059,44.6186233 C24.7194215,43.7817281 25.5590164,41.5842032 24.7207714,39.7106378 L23.9230212,37.9207619 L34.1695883,33.3394355 L34.9686883,35.1225622 C35.8069333,37.0001771 38.0031084,37.839772 39.8780236,37.001527 C41.751589,36.1659816 42.5911839,33.9671069 41.7529389,32.0921917 L40.9538389,30.3050154 L42.7396653,29.5032158 C44.6159304,28.6649708 45.4555253,26.4687957 44.6172802,24.5952303 Z M20.8886012,31.1365113 L16.3059249,20.8872446 L26.552492,16.3059182 L31.1351683,26.5524852 L20.8886012,31.1365113 Z" id="Shape" transform="translate(23.721197, 23.721877) rotate(5.000000) translate(-23.721197, -23.721877) "></path>
                    </g>
                </g>
            </g>
        </g>
    </g>
</svg>