<?xml version="1.0" encoding="utf-8"?>
<!-- Generator: Adobe Illustrator 20.0.0, SVG Export Plug-In . SVG Version: 6.00 Build 0)  -->
<svg version="1.1" id="Layer_1" xmlns="http://www.w3.org/2000/svg" xmlns:xlink="http://www.w3.org/1999/xlink" x="0px" y="0px"
	 viewBox="0 0 309 221.3" style="enable-background:new 0 0 309 221.3;" xml:space="preserve">
<style type="text/css">
	.st0{fill:url(#SVGID_1_);}
	.st1{fill:url(#SVGID_2_);}
	.st2{fill:url(#SVGID_3_);}
	.st3{fill:#1D1D1B;}
</style>
<g>
	<linearGradient id="SVGID_1_" gradientUnits="userSpaceOnUse" x1="159.4649" y1="150.3211" x2="133.7234" y2="4.334">
		<stop  offset="0" style="stop-color:#7423B5"/>
		<stop  offset="0.2779" style="stop-color:#AB21B4"/>
		<stop  offset="1" style="stop-color:#FF9999"/>
	</linearGradient>
	<path class="st0" d="M253.7,120l-63-108c-1.7-3-4.9-4.9-8.3-5c-3.4-0.1-6.7,1.6-8.6,4.4l-21.8,32.7l12.3,17.6L181.4,36l46.2,79.1
		H205l-40.4-53.9l-12.8-17.1l-24.8-33c-2.1-2.8-5.4-4.3-8.9-4c-3.5,0.3-6.5,2.4-8,5.5l-54,108c-1.5,3.1-1.4,6.8,0.4,9.7
		c1.8,2.9,5,4.7,8.5,4.7h45c3.3,0,6.5-1.7,8.3-4.5l34.5-51.8c-2.8-3.2-6.9-10.2-12.7-17l-35.5,53.2H81.2L120.7,36L137,57.8
		l15.8,21.1l39.2,52.2c1.9,2.5,4.9,4,8,4h45c3.6,0,6.9-1.9,8.7-5C255.5,127,255.5,123.1,253.7,120z"/>
</g>
<linearGradient id="SVGID_2_" gradientUnits="userSpaceOnUse" x1="154.3904" y1="49.0312" x2="183.101" y2="24.9401">
	<stop  offset="0.1415" style="stop-color:#AB21B4"/>
	<stop  offset="0.6492" style="stop-color:#D35CA8;stop-opacity:0"/>
</linearGradient>
<path class="st1" d="M177.8,25.2c-1.9-4.7-4.6-12.2-4.9-12.4l-21,31.5l12.7,17L181.4,36C181.4,36,179.7,29.9,177.8,25.2z"/>
<linearGradient id="SVGID_3_" gradientUnits="userSpaceOnUse" x1="127.1055" y1="91.6996" x2="149.4209" y2="72.9748">
	<stop  offset="0.3307" style="stop-color:#B533B1;stop-opacity:0"/>
	<stop  offset="0.8283" style="stop-color:#9522B5"/>
</linearGradient>
<path class="st2" d="M140.1,61.9l-16.8,25.3c5.3,6.3,5.5,6.7,14.2,14.7l15.3-23L140.1,61.9z"/>
<g>
	<path class="st3" d="M9.9,204.9c1,0.5,2.8,1.3,5.5,1.3c4.6,0,8.4-2.3,8.4-7.8v-2.6c0-1,0.2-1.8,0.2-1.8H24
		c-1.4,2.8-3.8,4.6-7.6,4.6c-5.9,0-10-4.6-10-11.8c0-6.9,3.8-11.3,9.9-11.3c6.1,0,7.7,4.4,7.7,4.4H24c0,0-0.1-0.3-0.1-0.9v-2.3
		c0-0.5,0.3-0.8,0.8-0.8H25c0.5,0,0.8,0.3,0.8,0.8v21.7c0,6.9-5,9.6-10.3,9.6c-2.3,0-4.4-0.5-6.4-1.4c-0.5-0.2-0.6-0.6-0.4-1
		l0.2-0.4C9.2,204.7,9.5,204.6,9.9,204.9z M23.9,187c0-7.4-3.5-9.7-7.7-9.7c-5.1,0-7.9,3.5-7.9,9.4c0,6.4,3.3,10,8.2,10
		C20.5,196.7,23.9,194.2,23.9,187z"/>
	<path class="st3" d="M42.3,175.4c5.9,0,9.2,4.2,9.2,10.7c0,0.5-0.4,0.8-0.8,0.8H33.3c0,6.5,4.4,10.3,9.7,10.3
		c3.1,0,5.4-1.4,6.4-2.3c0.4-0.3,0.8-0.3,1,0.1l0.3,0.4c0.2,0.3,0.2,0.7-0.2,1c-1.1,0.9-3.8,2.7-7.5,2.7c-6.4,0-11.6-4.6-11.6-11.8
		C31.3,179.6,36.5,175.4,42.3,175.4z M49.5,185.1c-0.2-5.5-3.5-8-7.3-8c-4.1,0-8,2.7-8.8,8H49.5z"/>
	<path class="st3" d="M57.5,177.8h-2.2c-0.5,0-0.8-0.3-0.8-0.8v-0.2c0-0.5,0.3-0.8,0.8-0.8h2.2v-5.6c0-0.5,0.3-0.8,0.8-0.8h0.4
		c0.5,0,0.8,0.3,0.8,0.8v5.6h5.1c0.5,0,0.8,0.3,0.8,0.8v0.2c0,0.5-0.3,0.8-0.8,0.8h-5.1v12.4c0,6,3.7,6.6,5.5,6.7
		c0.7,0,0.9,0.3,0.9,0.8v0.2c0,0.5-0.2,0.8-0.8,0.8c-5.3,0-7.5-3.4-7.5-8.3V177.8z"/>
	<path class="st3" d="M69,177.4c0-1.2,0.6-1.9,1.8-1.9h1.8c1.2,0,1.8,0.7,1.8,1.9v1.4c0,0.5-0.1,1-0.1,1h0.1
		c1.1-2.3,3.9-4.9,7.5-4.9c3.5,0,5.8,1.6,6.7,4.7h0.1c1.2-2.4,4.2-4.7,7.8-4.7c4.8,0,7.5,2.7,7.5,8.8v12.9c0,1.3-0.7,1.9-1.9,1.9
		h-1.9c-1.3,0-1.9-0.6-1.9-1.9v-11.8c0-2.6-0.5-4.6-3.2-4.6c-3.9,0-5.9,4-5.9,8v8.4c0,1.3-0.6,1.9-1.8,1.9h-2
		c-1.2,0-1.9-0.6-1.9-1.9v-11.8c0-2.5-0.4-4.6-3.1-4.6c-4.1,0-6,4.1-6,8v8.4c0,1.3-0.6,1.9-1.8,1.9h-2c-1.2,0-1.8-0.6-1.8-1.9V177.4
		z"/>
	<path class="st3" d="M108.7,177.4c0-1.2,0.7-1.9,1.9-1.9h1.9c1.3,0,1.9,0.7,1.9,1.9v11.7c0,2.8,0.7,4.7,3.6,4.7
		c4.1,0,6.5-3.7,6.5-7.8v-8.7c0-1.2,0.6-1.9,1.9-1.9h1.9c1.2,0,1.9,0.7,1.9,1.9v19.2c0,1.3-0.7,1.9-1.9,1.9h-1.8
		c-1.2,0-1.8-0.6-1.8-1.9v-1.4c0-0.5,0.1-1,0.1-1h-0.1c-1.1,2.3-4.1,4.8-8,4.8c-4.9,0-8-2.5-8-8.8V177.4z"/>
	<path class="st3" d="M135.3,168.4c0-1.2,0.6-1.9,1.8-1.9h2c1.2,0,1.8,0.7,1.8,1.9v22.5c0,2.3,0.9,2.7,1.8,2.8
		c0.8,0.1,1.4,0.6,1.4,1.6v1.5c0,1.2-0.5,1.9-1.9,1.9c-3.1,0-7-0.8-7-7.4V168.4z"/>
	<path class="st3" d="M148.6,180.4h-1.2c-1.2,0-1.8-0.6-1.8-1.9v-0.8c0-1.2,0.6-1.9,1.9-1.9h1.3v-4.7c0-1.2,0.7-1.9,1.9-1.9h1.8
		c1.2,0,1.9,0.7,1.9,1.9v4.7h3.3c1.2,0,1.9,0.7,1.9,1.9v0.8c0,1.3-0.7,1.9-1.8,1.9h-3.4v8.9c0,3.4,2.1,4.1,3.7,4.3
		c1.4,0.1,1.9,0.6,1.9,1.8v1.4c0,1.4-0.8,1.9-2.3,1.9c-4.1,0-9-2.2-9-8.4V180.4z"/>
	<path class="st3" d="M163.3,169.7v-1.4c0-1.2,0.6-1.9,1.8-1.9h2c1.2,0,1.9,0.7,1.9,1.9v1.4c0,1.2-0.7,1.8-1.9,1.8h-2
		C163.9,171.6,163.3,170.9,163.3,169.7z M163.3,177.4c0-1.2,0.6-1.9,1.8-1.9h2c1.2,0,1.8,0.7,1.8,1.9v19.2c0,1.3-0.6,1.9-1.8,1.9h-2
		c-1.2,0-1.8-0.6-1.8-1.9V177.4z"/>
	<path class="st3" d="M185.3,175c3.7,0,6.2,1.4,7.5,2.3c0.9,0.6,1,1.6,0.4,2.6l-0.6,0.9c-0.7,1-1.4,1-2.5,0.5
		c-0.9-0.6-2.5-1.4-4.5-1.4c-4.2,0-7,3.2-7,7.1c0,3.9,2.8,7.2,7.2,7.2c2.3,0,4.1-1,5.1-1.8c1.1-0.6,2-0.5,2.6,0.6l0.5,0.9
		c0.5,1,0.4,1.9-0.5,2.5c-1.4,1-4.2,2.7-8.2,2.7c-7.6,0-12.5-5.4-12.5-12C172.8,180.5,177.6,175,185.3,175z"/>
	<path class="st3" d="M208.6,175c7,0,12.7,5,12.7,12c0,7.1-5.7,12-12.7,12s-12.6-5-12.6-12C196,180,201.6,175,208.6,175z
		 M208.6,194.2c3.7,0,6.9-2.9,6.9-7.2c0-4.2-3.1-7.2-6.9-7.2c-3.7,0-6.8,2.9-6.8,7.2C201.8,191.3,204.8,194.2,208.6,194.2z"/>
	<path class="st3" d="M225,168.4c0-1.2,0.6-1.9,1.8-1.9h2c1.2,0,1.8,0.7,1.8,1.9v22.5c0,2.3,0.9,2.7,1.8,2.8
		c0.8,0.1,1.4,0.6,1.4,1.6v1.5c0,1.2-0.5,1.9-1.9,1.9c-3.1,0-7-0.8-7-7.4V168.4z"/>
	<path class="st3" d="M248.2,175c7,0,12.7,5,12.7,12c0,7.1-5.7,12-12.7,12s-12.6-5-12.6-12C235.6,180,241.2,175,248.2,175z
		 M248.2,194.2c3.7,0,6.9-2.9,6.9-7.2c0-4.2-3.1-7.2-6.9-7.2c-3.7,0-6.8,2.9-6.8,7.2C241.4,191.3,244.4,194.2,248.2,194.2z"/>
	<path class="st3" d="M264.3,177.4c0-1.2,0.7-1.9,1.9-1.9h1.9c1.3,0,1.9,0.7,1.9,1.9v11.7c0,2.8,0.7,4.7,3.6,4.7
		c4.1,0,6.5-3.7,6.5-7.8v-8.7c0-1.2,0.6-1.9,1.9-1.9h1.9c1.2,0,1.9,0.7,1.9,1.9v19.2c0,1.3-0.7,1.9-1.9,1.9h-1.8
		c-1.2,0-1.8-0.6-1.8-1.9v-1.4c0-0.5,0.1-1,0.1-1h-0.1c-1.1,2.3-4.1,4.8-8,4.8c-4.9,0-8-2.5-8-8.8V177.4z"/>
	<path class="st3" d="M291,177.4c0-1.2,0.6-1.9,1.8-1.9h1.8c1.2,0,1.9,0.7,1.9,1.9v2.2c0,0.9-0.1,1.6-0.1,1.6h0.1
		c0.9-2.8,3.4-5.8,6.7-5.8c1.3,0,1.7,0.6,1.7,1.9v1.8c0,1.2-0.7,1.9-1.9,1.9c-4.2,0-6.2,4.1-6.2,8.3v7.4c0,1.3-0.6,1.9-1.8,1.9h-2
		c-1.2,0-1.8-0.6-1.8-1.9V177.4z"/>
</g>
</svg>
