<?xml version="1.0" encoding="utf-8"?>
<!-- Generator: Adobe Illustrator 20.0.0, SVG Export Plug-In . SVG Version: 6.00 Build 0)  -->
<svg version="1.1" id="Layer_1" xmlns="http://www.w3.org/2000/svg" xmlns:xlink="http://www.w3.org/1999/xlink" x="0px" y="0px"
	 viewBox="0 0 330 330" style="enable-background:new 0 0 330 330;" xml:space="preserve">
<style type="text/css">
	.st0{fill:url(#SVGID_1_);}
	.st1{fill:url(#SVGID_2_);}
	.st2{fill:url(#SVGID_3_);}
	.st3{fill:#1D1D1B;}
</style>
<g>
	<linearGradient id="SVGID_1_" gradientUnits="userSpaceOnUse" x1="169.7982" y1="204.6544" x2="144.0567" y2="58.6673">
		<stop  offset="0" style="stop-color:#7423B5"/>
		<stop  offset="0.2779" style="stop-color:#AB21B4"/>
		<stop  offset="1" style="stop-color:#FF9999"/>
	</linearGradient>
	<path class="st0" d="M264,174.4l-63-108c-1.7-3-4.9-4.9-8.3-5c-3.4-0.1-6.7,1.6-8.6,4.4l-21.8,32.7l12.3,17.6l17.2-25.9l46.2,79.1
		h-22.6l-40.4-53.9l-12.8-17.1l-24.8-33c-2.1-2.8-5.4-4.3-8.9-4c-3.5,0.3-6.5,2.4-8,5.5l-54,108c-1.5,3.1-1.4,6.8,0.4,9.7
		c1.8,2.9,5,4.7,8.5,4.7h45c3.3,0,6.5-1.7,8.3-4.5l34.5-51.8c-2.8-3.2-6.9-10.2-12.7-17L115,169.4H91.5l39.5-79.1l16.3,21.7
		l15.8,21.1l39.2,52.2c1.9,2.5,4.9,4,8,4h45c3.6,0,6.9-1.9,8.7-5C265.8,181.3,265.8,177.5,264,174.4z"/>
</g>
<linearGradient id="SVGID_2_" gradientUnits="userSpaceOnUse" x1="164.7237" y1="103.3645" x2="193.4343" y2="79.2734">
	<stop  offset="0.1415" style="stop-color:#AB21B4"/>
	<stop  offset="0.6492" style="stop-color:#D35CA8;stop-opacity:0"/>
</linearGradient>
<path class="st1" d="M188.1,79.5c-1.9-4.7-4.6-12.2-4.9-12.4l-21,31.5l12.7,17l16.8-25.3C191.8,90.3,190.1,84.2,188.1,79.5z"/>
<linearGradient id="SVGID_3_" gradientUnits="userSpaceOnUse" x1="137.4388" y1="146.033" x2="159.7542" y2="127.3081">
	<stop  offset="0.3307" style="stop-color:#B533B1;stop-opacity:0"/>
	<stop  offset="0.8283" style="stop-color:#9522B5"/>
</linearGradient>
<path class="st2" d="M150.5,116.2l-16.8,25.3c5.3,6.3,5.5,6.7,14.2,14.7l15.3-23L150.5,116.2z"/>
<g>
	<path class="st3" d="M20.3,259.2c1,0.5,2.8,1.3,5.5,1.3c4.6,0,8.4-2.3,8.4-7.8v-2.6c0-1,0.2-1.8,0.2-1.8h-0.1
		c-1.4,2.8-3.8,4.6-7.6,4.6c-5.9,0-10-4.6-10-11.8c0-6.9,3.8-11.3,9.9-11.3c6.1,0,7.7,4.4,7.7,4.4h0.1c0,0-0.1-0.3-0.1-0.9V231
		c0-0.5,0.3-0.8,0.8-0.8h0.4c0.5,0,0.8,0.3,0.8,0.8v21.7c0,6.9-5,9.6-10.3,9.6c-2.3,0-4.4-0.5-6.4-1.4c-0.5-0.2-0.6-0.6-0.4-1
		l0.2-0.4C19.5,259.1,19.8,259,20.3,259.2z M34.3,241.3c0-7.4-3.5-9.7-7.7-9.7c-5.1,0-7.9,3.5-7.9,9.4c0,6.4,3.3,10,8.2,10
		C30.8,251,34.3,248.5,34.3,241.3z"/>
	<path class="st3" d="M52.6,229.7c5.9,0,9.2,4.2,9.2,10.7c0,0.5-0.4,0.8-0.8,0.8H43.6c0,6.5,4.4,10.3,9.7,10.3
		c3.1,0,5.4-1.4,6.4-2.3c0.4-0.3,0.8-0.3,1,0.1l0.3,0.4c0.2,0.3,0.2,0.7-0.2,1c-1.1,0.9-3.8,2.7-7.5,2.7c-6.4,0-11.6-4.6-11.6-11.8
		C41.7,234,46.8,229.7,52.6,229.7z M59.8,239.5c-0.2-5.5-3.5-8-7.3-8c-4.1,0-8,2.7-8.8,8H59.8z"/>
	<path class="st3" d="M67.9,232.1h-2.2c-0.5,0-0.8-0.3-0.8-0.8v-0.2c0-0.5,0.3-0.8,0.8-0.8h2.2v-5.6c0-0.5,0.3-0.8,0.8-0.8H69
		c0.5,0,0.8,0.3,0.8,0.8v5.6h5.1c0.5,0,0.8,0.3,0.8,0.8v0.2c0,0.5-0.3,0.8-0.8,0.8h-5.1v12.4c0,6,3.7,6.6,5.5,6.7
		c0.7,0,0.9,0.3,0.9,0.8v0.2c0,0.5-0.2,0.8-0.8,0.8c-5.3,0-7.5-3.4-7.5-8.3V232.1z"/>
	<path class="st3" d="M79.3,231.7c0-1.2,0.6-1.9,1.8-1.9h1.8c1.2,0,1.8,0.7,1.8,1.9v1.4c0,0.5-0.1,1-0.1,1h0.1
		c1.1-2.3,3.9-4.9,7.5-4.9c3.5,0,5.8,1.6,6.7,4.7h0.1c1.2-2.4,4.2-4.7,7.8-4.7c4.8,0,7.5,2.7,7.5,8.8v12.9c0,1.3-0.7,1.9-1.9,1.9
		h-1.9c-1.3,0-1.9-0.6-1.9-1.9v-11.8c0-2.6-0.5-4.6-3.2-4.6c-3.9,0-5.9,4-5.9,8v8.4c0,1.3-0.6,1.9-1.8,1.9h-2
		c-1.2,0-1.9-0.6-1.9-1.9v-11.8c0-2.5-0.4-4.6-3.1-4.6c-4.1,0-6,4.1-6,8v8.4c0,1.3-0.6,1.9-1.8,1.9h-2c-1.2,0-1.8-0.6-1.8-1.9V231.7
		z"/>
	<path class="st3" d="M119.1,231.7c0-1.2,0.7-1.9,1.9-1.9h1.9c1.3,0,1.9,0.7,1.9,1.9v11.7c0,2.8,0.7,4.7,3.6,4.7
		c4.1,0,6.5-3.7,6.5-7.8v-8.7c0-1.2,0.6-1.9,1.9-1.9h1.9c1.2,0,1.9,0.7,1.9,1.9v19.2c0,1.3-0.7,1.9-1.9,1.9h-1.8
		c-1.2,0-1.8-0.6-1.8-1.9v-1.4c0-0.5,0.1-1,0.1-1H135c-1.1,2.3-4.1,4.8-8,4.8c-4.9,0-8-2.5-8-8.8V231.7z"/>
	<path class="st3" d="M145.7,222.7c0-1.2,0.6-1.9,1.8-1.9h2c1.2,0,1.8,0.7,1.8,1.9v22.5c0,2.3,0.9,2.7,1.8,2.8
		c0.8,0.1,1.4,0.6,1.4,1.6v1.5c0,1.2-0.5,1.9-1.9,1.9c-3.1,0-7-0.8-7-7.4V222.7z"/>
	<path class="st3" d="M158.9,234.7h-1.2c-1.2,0-1.8-0.6-1.8-1.9V232c0-1.2,0.6-1.9,1.9-1.9h1.3v-4.7c0-1.2,0.7-1.9,1.9-1.9h1.8
		c1.2,0,1.9,0.7,1.9,1.9v4.7h3.3c1.2,0,1.9,0.7,1.9,1.9v0.8c0,1.3-0.7,1.9-1.8,1.9h-3.4v8.9c0,3.4,2.1,4.1,3.7,4.3
		c1.4,0.1,1.9,0.6,1.9,1.8v1.4c0,1.4-0.8,1.9-2.3,1.9c-4.1,0-9-2.2-9-8.4V234.7z"/>
	<path class="st3" d="M173.6,224.1v-1.4c0-1.2,0.6-1.9,1.8-1.9h2c1.2,0,1.9,0.7,1.9,1.9v1.4c0,1.2-0.7,1.8-1.9,1.8h-2
		C174.3,225.9,173.6,225.3,173.6,224.1z M173.6,231.7c0-1.2,0.6-1.9,1.8-1.9h2c1.2,0,1.8,0.7,1.8,1.9v19.2c0,1.3-0.6,1.9-1.8,1.9h-2
		c-1.2,0-1.8-0.6-1.8-1.9V231.7z"/>
	<path class="st3" d="M195.6,229.3c3.7,0,6.2,1.4,7.5,2.3c0.9,0.6,1,1.6,0.4,2.6l-0.6,0.9c-0.7,1-1.4,1-2.5,0.5
		c-0.9-0.6-2.5-1.4-4.5-1.4c-4.2,0-7,3.2-7,7.1c0,3.9,2.8,7.2,7.2,7.2c2.3,0,4.1-1,5.1-1.8c1.1-0.6,2-0.5,2.6,0.6l0.5,0.9
		c0.5,1,0.4,1.9-0.5,2.5c-1.4,1-4.2,2.7-8.2,2.7c-7.6,0-12.5-5.4-12.5-12C183.1,234.8,188,229.3,195.6,229.3z"/>
	<path class="st3" d="M218.9,229.3c7,0,12.7,5,12.7,12c0,7.1-5.7,12-12.7,12s-12.6-5-12.6-12C206.3,234.3,211.9,229.3,218.9,229.3z
		 M218.9,248.5c3.7,0,6.9-2.9,6.9-7.2c0-4.2-3.1-7.2-6.9-7.2c-3.7,0-6.8,2.9-6.8,7.2C212.1,245.6,215.2,248.5,218.9,248.5z"/>
	<path class="st3" d="M235.3,222.7c0-1.2,0.6-1.9,1.8-1.9h2c1.2,0,1.8,0.7,1.8,1.9v22.5c0,2.3,0.9,2.7,1.8,2.8
		c0.8,0.1,1.4,0.6,1.4,1.6v1.5c0,1.2-0.5,1.9-1.9,1.9c-3.1,0-7-0.8-7-7.4V222.7z"/>
	<path class="st3" d="M258.5,229.3c7,0,12.7,5,12.7,12c0,7.1-5.7,12-12.7,12s-12.6-5-12.6-12C245.9,234.3,251.5,229.3,258.5,229.3z
		 M258.5,248.5c3.7,0,6.9-2.9,6.9-7.2c0-4.2-3.1-7.2-6.9-7.2c-3.7,0-6.8,2.9-6.8,7.2C251.7,245.6,254.8,248.5,258.5,248.5z"/>
	<path class="st3" d="M274.6,231.7c0-1.2,0.7-1.9,1.9-1.9h1.9c1.3,0,1.9,0.7,1.9,1.9v11.7c0,2.8,0.7,4.7,3.6,4.7
		c4.1,0,6.5-3.7,6.5-7.8v-8.7c0-1.2,0.6-1.9,1.9-1.9h1.9c1.2,0,1.9,0.7,1.9,1.9v19.2c0,1.3-0.7,1.9-1.9,1.9h-1.8
		c-1.2,0-1.8-0.6-1.8-1.9v-1.4c0-0.5,0.1-1,0.1-1h-0.1c-1.1,2.3-4.1,4.8-8,4.8c-4.9,0-8-2.5-8-8.8V231.7z"/>
	<path class="st3" d="M301.3,231.7c0-1.2,0.6-1.9,1.8-1.9h1.8c1.2,0,1.9,0.7,1.9,1.9v2.2c0,0.9-0.1,1.6-0.1,1.6h0.1
		c0.9-2.8,3.4-5.8,6.7-5.8c1.3,0,1.7,0.6,1.7,1.9v1.8c0,1.2-0.7,1.9-1.9,1.9c-4.2,0-6.2,4.1-6.2,8.3v7.4c0,1.3-0.6,1.9-1.8,1.9h-2
		c-1.2,0-1.8-0.6-1.8-1.9V231.7z"/>
</g>
</svg>
