<?xml version="1.0" encoding="UTF-8" standalone="no"?>
<svg width="736px" height="329px" viewBox="0 0 736 329" version="1.1" xmlns="http://www.w3.org/2000/svg" xmlns:xlink="http://www.w3.org/1999/xlink" xmlns:sketch="http://www.bohemiancoding.com/sketch/ns">
    <!-- Generator: Sketch 3.4.4 (17249) - http://www.bohemiancoding.com/sketch -->
    <title>logo-text-outlined</title>
    <desc>Created with Sketch.</desc>
    <defs>
        <linearGradient x1="89.6101562%" y1="18.178125%" x2="14.4695313%" y2="86.2132812%" id="linearGradient-1">
            <stop stop-color="#C43A8C" offset="0%"></stop>
            <stop stop-color="#16A8AE" offset="100%"></stop>
        </linearGradient>
        <linearGradient x1="50%" y1="0%" x2="50%" y2="100%" id="linearGradient-2">
            <stop stop-color="#C43A8C" offset="0%"></stop>
            <stop stop-color="#16A8AE" offset="100%"></stop>
        </linearGradient>
    </defs>
    <g id="With-Text-Outlined" stroke="none" stroke-width="1" fill="none" fill-rule="evenodd" sketch:type="MSPage">
        <g id="Circle" sketch:type="MSLayerGroup" transform="translate(29.000000, 40.000000)" stroke-width="12">
            <path d="M125,250 C194.035594,250 250,194.035594 250,125 C250,55.9644063 194.035594,0 125,0 C55.9644063,0 0,55.9644063 0,125 C0,194.035594 55.9644063,250 125,250 Z" id="Oval-1" stroke="url(#linearGradient-1)" sketch:type="MSShapeGroup"></path>
            <path d="M124.625,122.034169 C124.625,94.4201964 102.239452,72.0346489 74.6254801,72.0346489 C47.0115078,72.0346489 24.6259603,94.4201964 24.6259603,122.034169 C24.6259603,149.648141 124.625,149.648141 124.625,122.034169 Z M125.375,127.965831 C125.375,155.579804 147.760548,177.965351 175.37452,177.965351 C202.988492,177.965351 225.37404,155.579804 225.37404,127.965831 C225.37404,100.351859 125.375,100.351859 125.375,127.965831 Z" id="Oval-2" stroke="url(#linearGradient-2)" sketch:type="MSShapeGroup"></path>
        </g>
        <path d="M405.244,130.944 L405.244,183 L396.712,183 L396.712,149.376 C396.712,148.031993 396.783999,146.580008 396.928,145.02 L381.196,174.576 C380.451996,175.992007 379.312008,176.7 377.776,176.7 L376.408,176.7 C374.871992,176.7 373.732004,175.992007 372.988,174.576 L357.076,144.912 C357.148,145.704004 357.208,146.483996 357.256,147.252 C357.304,148.020004 357.328,148.727997 357.328,149.376 L357.328,183 L348.796,183 L348.796,130.944 L356.104,130.944 C356.536002,130.944 356.907998,130.956 357.22,130.98 C357.532002,131.004 357.813999,131.064 358.066,131.16 C358.318001,131.256 358.545999,131.411999 358.75,131.628 C358.954001,131.844001 359.151999,132.131998 359.344,132.492 L374.932,161.4 C375.340002,162.168004 375.717998,162.959996 376.066,163.776 C376.414002,164.592004 376.755998,165.431996 377.092,166.296 C377.428002,165.407996 377.775998,164.550004 378.136,163.722 C378.496002,162.893996 378.879998,162.096004 379.288,161.328 L394.66,132.492 C394.852001,132.131998 395.055999,131.844001 395.272,131.628 C395.488001,131.411999 395.721999,131.256 395.974,131.16 C396.226001,131.064 396.507998,131.004 396.82,130.98 C397.132002,130.956 397.503998,130.944 397.936,130.944 L405.244,130.944 Z M446.572,146.064 L446.572,183 L441.136,183 C439.959994,183 439.216002,182.460005 438.904,181.38 L438.292,178.428 C436.779992,179.964008 435.112009,181.205995 433.288,182.154 C431.463991,183.102005 429.316012,183.576 426.844,183.576 C424.82799,183.576 423.046008,183.234003 421.498,182.55 C419.949992,181.865997 418.648005,180.900006 417.592,179.652 C416.535995,178.403994 415.738003,176.922009 415.198,175.206 C414.657997,173.489991 414.388,171.60001 414.388,169.536 L414.388,146.064 L423.28,146.064 L423.28,169.536 C423.28,171.792011 423.801995,173.537994 424.846,174.774 C425.890005,176.010006 427.45599,176.628 429.544,176.628 C431.080008,176.628 432.519993,176.286003 433.864,175.602 C435.208007,174.917997 436.479994,173.976006 437.68,172.776 L437.68,146.064 L446.572,146.064 Z M464.356,129.504 L464.356,183 L455.464,183 L455.464,129.504 L464.356,129.504 Z M510.508,183 L501.616,183 L501.616,152.724 L484.48,152.724 L484.48,172.74 C484.48,173.892006 484.761997,174.791997 485.326,175.44 C485.890003,176.088003 486.663995,176.412 487.648,176.412 C488.200003,176.412 488.661998,176.346001 489.034,176.214 C489.406002,176.081999 489.729999,175.944001 490.006,175.8 C490.282001,175.655999 490.527999,175.518001 490.744,175.386 C490.960001,175.253999 491.175999,175.188 491.392,175.188 C491.656001,175.188 491.871999,175.253999 492.04,175.386 C492.208001,175.518001 492.387999,175.715999 492.58,175.98 L495.244,180.3 C493.947994,181.380005 492.460008,182.195997 490.78,182.748 C489.099992,183.300003 487.360009,183.576 485.56,183.576 C482.343984,183.576 479.878009,182.670009 478.162,180.858 C476.445991,179.045991 475.588,176.544016 475.588,173.352 L475.588,152.724 L471.808,152.724 C471.327998,152.724 470.920002,152.568002 470.584,152.256 C470.247998,151.943998 470.08,151.476003 470.08,150.852 L470.08,147.324 L476.02,146.316 L477.892,136.272 C478.012001,135.791998 478.239998,135.420001 478.576,135.156 C478.912002,134.891999 479.343997,134.76 479.872,134.76 L484.48,134.76 L484.48,146.388 L510.508,146.388 L510.508,183 Z M512.056,135.156 C512.056,135.924004 511.900002,136.649997 511.588,137.334 C511.275998,138.018003 510.862003,138.611997 510.346,139.116 C509.829997,139.620003 509.218004,140.021998 508.51,140.322 C507.801996,140.622002 507.052004,140.772 506.26,140.772 C505.491996,140.772 504.772003,140.622002 504.1,140.322 C503.427997,140.021998 502.840003,139.620003 502.336,139.116 C501.831997,138.611997 501.430001,138.018003 501.13,137.334 C500.829998,136.649997 500.68,135.924004 500.68,135.156 C500.68,134.363996 500.829998,133.626003 501.13,132.942 C501.430001,132.257997 501.831997,131.658003 502.336,131.142 C502.840003,130.625997 503.427997,130.218001 504.1,129.918 C504.772003,129.617998 505.491996,129.468 506.26,129.468 C507.052004,129.468 507.801996,129.617998 508.51,129.918 C509.218004,130.218001 509.829997,130.625997 510.346,131.142 C510.862003,131.658003 511.275998,132.257997 511.588,132.942 C511.900002,133.626003 512.056,134.363996 512.056,135.156 L512.056,135.156 Z M546.04,153.876 C545.775999,154.212002 545.518001,154.475999 545.266,154.668 C545.013999,154.860001 544.648002,154.956 544.168,154.956 C543.711998,154.956 543.268002,154.818001 542.836,154.542 C542.403998,154.265999 541.888003,153.954002 541.288,153.606 C540.687997,153.257998 539.974004,152.946001 539.146,152.67 C538.317996,152.393999 537.292006,152.256 536.068,152.256 C534.507992,152.256 533.140006,152.537997 531.964,153.102 C530.787994,153.666003 529.810004,154.475995 529.03,155.532 C528.249996,156.588005 527.668002,157.865993 527.284,159.366 C526.899998,160.866007 526.708,162.563991 526.708,164.46 C526.708,166.42801 526.917998,168.179992 527.338,169.716 C527.758002,171.252008 528.363996,172.541995 529.156,173.586 C529.948004,174.630005 530.907994,175.421997 532.036,175.962 C533.164006,176.502003 534.435993,176.772 535.852,176.772 C537.268007,176.772 538.413996,176.598002 539.29,176.25 C540.166004,175.901998 540.903997,175.518002 541.504,175.098 C542.104003,174.677998 542.625998,174.294002 543.07,173.946 C543.514002,173.597998 544.011997,173.424 544.564,173.424 C545.284004,173.424 545.823998,173.699997 546.184,174.252 L548.74,177.492 C547.755995,178.644006 546.688006,179.609996 545.536,180.39 C544.383994,181.170004 543.190006,181.793998 541.954,182.262 C540.717994,182.730002 539.446007,183.059999 538.138,183.252 C536.829993,183.444001 535.528006,183.54 534.232,183.54 C531.951989,183.54 529.80401,183.114004 527.788,182.262 C525.77199,181.409996 524.008008,180.168008 522.496,178.536 C520.983992,176.903992 519.790004,174.906012 518.914,172.542 C518.037996,170.177988 517.6,167.484015 517.6,164.46 C517.6,161.747986 517.989996,159.234012 518.77,156.918 C519.550004,154.601988 520.695992,152.598008 522.208,150.906 C523.720008,149.213992 525.591989,147.888005 527.824,146.928 C530.056011,145.967995 532.623985,145.488 535.528,145.488 C538.288014,145.488 540.70599,145.931996 542.782,146.82 C544.85801,147.708004 546.723992,148.979992 548.38,150.636 L546.04,153.876 Z M569.98,145.488 C572.716014,145.488 575.205989,145.931996 577.45,146.82 C579.694011,147.708004 581.613992,148.967992 583.21,150.6 C584.806008,152.232008 586.035996,154.223988 586.9,156.576 C587.764004,158.928012 588.196,161.555985 588.196,164.46 C588.196,167.388015 587.764004,170.027988 586.9,172.38 C586.035996,174.732012 584.806008,176.735992 583.21,178.392 C581.613992,180.048008 579.694011,181.319996 577.45,182.208 C575.205989,183.096004 572.716014,183.54 569.98,183.54 C567.219986,183.54 564.712011,183.096004 562.456,182.208 C560.199989,181.319996 558.274008,180.048008 556.678,178.392 C555.081992,176.735992 553.846004,174.732012 552.97,172.38 C552.093996,170.027988 551.656,167.388015 551.656,164.46 C551.656,161.555985 552.093996,158.928012 552.97,156.576 C553.846004,154.223988 555.081992,152.232008 556.678,150.6 C558.274008,148.967992 560.199989,147.708004 562.456,146.82 C564.712011,145.931996 567.219986,145.488 569.98,145.488 L569.98,145.488 Z M569.98,176.7 C573.052015,176.7 575.325993,175.66801 576.802,173.604 C578.278007,171.53999 579.016,168.51602 579.016,164.532 C579.016,160.54798 578.278007,157.51201 576.802,155.424 C575.325993,153.33599 573.052015,152.292 569.98,152.292 C566.859984,152.292 564.550007,153.34199 563.05,155.442 C561.549992,157.542011 560.8,160.57198 560.8,164.532 C560.8,168.49202 561.549992,171.50999 563.05,173.586 C564.550007,175.66201 566.859984,176.7 569.98,176.7 L569.98,176.7 Z M604,129.504 L604,183 L595.108,183 L595.108,129.504 L604,129.504 Z M629.236,145.488 C631.972014,145.488 634.461989,145.931996 636.706,146.82 C638.950011,147.708004 640.869992,148.967992 642.466,150.6 C644.062008,152.232008 645.291996,154.223988 646.156,156.576 C647.020004,158.928012 647.452,161.555985 647.452,164.46 C647.452,167.388015 647.020004,170.027988 646.156,172.38 C645.291996,174.732012 644.062008,176.735992 642.466,178.392 C640.869992,180.048008 638.950011,181.319996 636.706,182.208 C634.461989,183.096004 631.972014,183.54 629.236,183.54 C626.475986,183.54 623.968011,183.096004 621.712,182.208 C619.455989,181.319996 617.530008,180.048008 615.934,178.392 C614.337992,176.735992 613.102004,174.732012 612.226,172.38 C611.349996,170.027988 610.912,167.388015 610.912,164.46 C610.912,161.555985 611.349996,158.928012 612.226,156.576 C613.102004,154.223988 614.337992,152.232008 615.934,150.6 C617.530008,148.967992 619.455989,147.708004 621.712,146.82 C623.968011,145.931996 626.475986,145.488 629.236,145.488 L629.236,145.488 Z M629.236,176.7 C632.308015,176.7 634.581993,175.66801 636.058,173.604 C637.534007,171.53999 638.272,168.51602 638.272,164.532 C638.272,160.54798 637.534007,157.51201 636.058,155.424 C634.581993,153.33599 632.308015,152.292 629.236,152.292 C626.115984,152.292 623.806007,153.34199 622.306,155.442 C620.805993,157.542011 620.056,160.57198 620.056,164.532 C620.056,168.49202 620.805993,171.50999 622.306,173.586 C623.806007,175.66201 626.115984,176.7 629.236,176.7 L629.236,176.7 Z M686.08,146.064 L686.08,183 L680.644,183 C679.467994,183 678.724002,182.460005 678.412,181.38 L677.8,178.428 C676.287992,179.964008 674.620009,181.205995 672.796,182.154 C670.971991,183.102005 668.824012,183.576 666.352,183.576 C664.33599,183.576 662.554008,183.234003 661.006,182.55 C659.457992,181.865997 658.156005,180.900006 657.1,179.652 C656.043995,178.403994 655.246003,176.922009 654.706,175.206 C654.165997,173.489991 653.896,171.60001 653.896,169.536 L653.896,146.064 L662.788,146.064 L662.788,169.536 C662.788,171.792011 663.309995,173.537994 664.354,174.774 C665.398005,176.010006 666.96399,176.628 669.052,176.628 C670.588008,176.628 672.027993,176.286003 673.372,175.602 C674.716007,174.917997 675.987994,173.976006 677.188,172.776 L677.188,146.064 L686.08,146.064 Z M703.252,152.472 C704.404006,150.263989 705.771992,148.530006 707.356,147.27 C708.940008,146.009994 710.811989,145.38 712.972,145.38 C714.676009,145.38 716.043995,145.751996 717.076,146.496 L716.5,153.156 C716.379999,153.588002 716.206001,153.893999 715.978,154.074 C715.749999,154.254001 715.444002,154.344 715.06,154.344 C714.699998,154.344 714.166004,154.284001 713.458,154.164 C712.749996,154.043999 712.060003,153.984 711.388,153.984 C710.403995,153.984 709.528004,154.127999 708.76,154.416 C707.991996,154.704001 707.302003,155.117997 706.69,155.658 C706.077997,156.198003 705.538002,156.851996 705.07,157.62 C704.601998,158.388004 704.164002,159.263995 703.756,160.248 L703.756,183 L694.864,183 L694.864,146.064 L700.084,146.064 C700.996005,146.064 701.631998,146.225998 701.992,146.55 C702.352002,146.874002 702.591999,147.455996 702.712,148.296 L703.252,152.472 Z" id="Multicolour" fill="#515151" sketch:type="MSShapeGroup"></path>
        <path d="M367.102,105.444 L367.102,114.498 C365.829994,115.398005 364.474007,116.087998 363.034,116.568 C361.593993,117.048002 359.974009,117.288 358.174,117.288 C356.15799,117.288 354.346008,116.979003 352.738,116.361 C351.129992,115.742997 349.759006,114.867006 348.625,113.733 C347.490994,112.598994 346.621003,111.228008 346.015,109.62 C345.408997,108.011992 345.106,106.22401 345.106,104.256 C345.106,102.28799 345.402997,100.503008 345.997,98.901 C346.591003,97.298992 347.442994,95.9310057 348.553,94.797 C349.663006,93.6629943 351.003992,92.7870031 352.576,92.169 C354.148008,91.5509969 355.91799,91.242 357.886,91.242 C358.858005,91.242 359.754996,91.3079993 360.577,91.44 C361.399004,91.5720007 362.163996,91.7669987 362.872,92.025 C363.580004,92.2830013 364.239997,92.6009981 364.852,92.979 C365.464003,93.3570019 366.051997,93.7919975 366.616,94.284 L366.112,95.076 C365.943999,95.3640014 365.692002,95.4300008 365.356,95.274 C365.175999,95.2019996 364.918002,95.0340013 364.582,94.77 C364.245998,94.5059987 363.784003,94.2300014 363.196,93.942 C362.607997,93.6539986 361.879004,93.3960011 361.009,93.168 C360.138996,92.9399989 359.080006,92.826 357.832,92.826 C356.175992,92.826 354.679007,93.0899974 353.341,93.618 C352.002993,94.1460026 350.863005,94.9019951 349.921,95.886 C348.978995,96.8700049 348.253003,98.0699929 347.743,99.486 C347.232997,100.902007 346.978,102.491991 346.978,104.256 C346.978,106.044009 347.232997,107.651993 347.743,109.08 C348.253003,110.508007 348.990995,111.719995 349.957,112.716 C350.923005,113.712005 352.095993,114.473997 353.476,115.002 C354.856007,115.530003 356.409991,115.794 358.138,115.794 C358.894004,115.794 359.592997,115.746 360.235,115.65 C360.877003,115.554 361.488997,115.419001 362.071,115.245 C362.653003,115.070999 363.216997,114.855001 363.763,114.597 C364.309003,114.338999 364.863997,114.048002 365.428,113.724 L365.428,106.866 L360.55,106.866 C360.417999,106.866 360.307,106.824 360.217,106.74 C360.127,106.656 360.082,106.560001 360.082,106.452 L360.082,105.444 L367.102,105.444 Z M388.522,115.47 L388.486,117 L373.222,117 L373.222,91.53 L388.486,91.53 L388.486,93.06 L375.076,93.06 L375.076,103.356 L386.236,103.356 L386.236,104.85 L375.076,104.85 L375.076,115.47 L388.522,115.47 Z M410.662,93.096 L401.716,93.096 L401.716,117 L399.862,117 L399.862,93.096 L390.862,93.096 L390.862,91.53 L410.662,91.53 L410.662,93.096 Z" id="GET" fill="#69739E" sketch:type="MSShapeGroup"></path>
    </g>
</svg>