<?xml version="1.0" encoding="UTF-8" standalone="no"?>
<svg width="201px" height="129px" viewBox="0 0 201 129" version="1.1" xmlns="http://www.w3.org/2000/svg" xmlns:xlink="http://www.w3.org/1999/xlink">
    <!-- Generator: Sketch 39.1 (31720) - http://www.bohemiancoding.com/sketch -->
    <title>Slice 1</title>
    <desc>Created with Sketch.</desc>
    <defs>
        <linearGradient x1="52.1989107%" y1="111.992084%" x2="39.3213747%" y2="-2.02667151%" id="linearGradient-1">
            <stop stop-color="#7423B5" offset="0%"></stop>
            <stop stop-color="#AB21B4" offset="27.79%"></stop>
            <stop stop-color="#FF9999" offset="100%"></stop>
        </linearGradient>
        <linearGradient x1="8.55369762%" y1="74.7721649%" x2="105.863913%" y2="25.0997938%" id="linearGradient-2">
            <stop stop-color="#AB21B4" offset="14.15%"></stop>
            <stop stop-color="#D35CA8" stop-opacity="0" offset="64.92%"></stop>
        </linearGradient>
        <linearGradient x1="12.6738983%" y1="74.5825%" x2="88.319322%" y2="27.77025%" id="linearGradient-3">
            <stop stop-color="#B533B1" stop-opacity="0" offset="33.07%"></stop>
            <stop stop-color="#9522B5" offset="82.83%"></stop>
        </linearGradient>
    </defs>
    <g id="Page-1" stroke="none" stroke-width="1" fill="none" fill-rule="evenodd">
        <g id="logo-stamp">
            <path d="M199,113.4 L136,5.4 C134.3,2.4 131.1,0.5 127.7,0.4 C124.3,0.3 121,2 119.1,4.8 L97.3,37.5 L109.6,55.1 L126.8,29.2 L173,108.3 L150.4,108.3 L110,54.4 L97.2,37.3 L72.4,4.3 C70.3,1.5 67,1.24344979e-14 63.5,0.3 C60,0.6 57,2.7 55.5,5.8 L1.5,113.8 C-2.97539771e-14,116.9 0.1,120.6 1.9,123.5 C3.7,126.4 6.9,128.2 10.4,128.2 L55.4,128.2 C58.7,128.2 61.9,126.5 63.7,123.7 L98.2,71.9 C95.4,68.7 91.3,61.7 85.5,54.9 L50,108.4 L26.5,108.4 L66,29.3 L82.3,51 L98.1,72.1 L137.3,124.3 C139.2,126.8 142.2,128.3 145.3,128.3 L190.3,128.3 C193.9,128.3 197.2,126.4 199,123.3 C200.8,120.3 200.8,116.5 199,113.4 L199,113.4 Z" id="Shape" fill="url(#linearGradient-1)"></path>
            <path d="M123.1,18.5 C121.2,13.8 118.5,6.3 118.2,6.1 L97.2,37.6 L109.9,54.6 L126.7,29.3 C126.8,29.3 125.1,23.2 123.1,18.5 L123.1,18.5 Z" id="Shape" fill="url(#linearGradient-2)"></path>
            <path d="M85.5,55.2 L68.7,80.5 C74,86.8 74.2,87.2 82.9,95.2 L98.2,72.2 L85.5,55.2 L85.5,55.2 Z" id="Shape" fill="url(#linearGradient-3)"></path>
        </g>
    </g>
</svg>