<?xml version="1.0" encoding="UTF-8" standalone="no"?>
<svg width="201px" height="130px" viewBox="0 0 201 130" version="1.1" xmlns="http://www.w3.org/2000/svg" xmlns:xlink="http://www.w3.org/1999/xlink">
    <!-- Generator: Sketch 39.1 (31720) - http://www.bohemiancoding.com/sketch -->
    <title>Slice 1</title>
    <desc>Created with Sketch.</desc>
    <defs>
        <linearGradient x1="52.2061614%" y1="111.881814%" x2="39.3350644%" y2="-2.07785427%" id="linearGradient-1">
            <stop stop-color="#7423B5" offset="0%"></stop>
            <stop stop-color="#AB21B4" offset="27.79%"></stop>
            <stop stop-color="#FF9999" offset="100%"></stop>
        </linearGradient>
        <linearGradient x1="8.4420339%" y1="74.7035052%" x2="105.766102%" y2="25.031134%" id="linearGradient-2">
            <stop stop-color="#AB21B4" offset="14.15%"></stop>
            <stop stop-color="#D35CA8" stop-opacity="0" offset="64.92%"></stop>
        </linearGradient>
        <linearGradient x1="12.9%" y1="74.499%" x2="88.5454237%" y2="27.687%" id="linearGradient-3">
            <stop stop-color="#B533B1" stop-opacity="0" offset="33.07%"></stop>
            <stop stop-color="#9522B5" offset="82.83%"></stop>
        </linearGradient>
    </defs>
    <g id="Page-1" stroke="none" stroke-width="1" fill="none" fill-rule="evenodd">
        <g id="logo-stamp">
            <path d="M198.7,114 L135.7,6 C134,3 130.8,1.1 127.4,1 C124,0.9 120.7,2.6 118.8,5.4 L97,38.1 L109.3,55.7 L126.4,30 L172.6,109.1 L150,109.1 L109.6,55.2 L96.8,38.1 L72,5.1 C69.9,2.3 66.6,0.8 63.1,1.1 C59.6,1.4 56.6,3.5 55.1,6.6 L1.1,114.6 C-0.4,117.7 -0.3,121.4 1.5,124.3 C3.3,127.2 6.5,129 10,129 L55,129 C58.3,129 61.5,127.3 63.3,124.5 L97.8,72.7 C95,69.5 90.9,62.5 85.1,55.7 L49.6,108.9 L26.2,108.9 L65.7,30 L82,51.8 L97.8,72.9 L137,125.1 C138.9,127.6 141.9,129.1 145,129.1 L190,129.1 C193.6,129.1 196.9,127.2 198.7,124.1 C200.5,121 200.5,117.1 198.7,114 L198.7,114 Z" id="Shape" fill="url(#linearGradient-1)"></path>
            <path d="M122.8,19.2 C120.9,14.5 118.2,7 117.9,6.8 L96.9,38.3 L109.6,55.3 L126.4,30 C126.4,30 124.7,23.9 122.8,19.2 L122.8,19.2 Z" id="Shape" fill="url(#linearGradient-2)"></path>
            <path d="M85.1,55.9 L68.3,81.2 C73.6,87.5 73.8,87.9 82.5,95.9 L97.8,72.9 L85.1,55.9 L85.1,55.9 Z" id="Shape" fill="url(#linearGradient-3)"></path>
        </g>
    </g>
</svg>